# AST/ASF file generated using VICON BodyLanguage
# -----------------------------------------------
:version 1.10
:name VICON
:units
  mass 1.0
  length 0.45
  angle deg
:documentation
   .ast/.asf automatically generated from VICON data using
   VICON BodyBuilder and BodyLanguage model FoxedUp or BRILLIANT.MOD
:root
   order TX TY TZ RX RY RZ
   axis XYZ
   position 0 0 0  
   orientation 0 0 0 
:bonedata
  begin
     id 1 
     name lhipjoint
     direction 0.635376 -0.686425 0.353719 
     length 2.47244 
     axis 0 0 0  XYZ
  end
  begin
     id 2 
     name lfemur
     direction 0.34202 -0.939693 0  
     length 7.25268  
     axis 0 0 20  XYZ
    dof rx ry rz
    limits (-160.0 20.0)
           (-70.0 70.0)
           (-60.0 70.0)
  end
  begin
     id 3 
     name ltibia
     direction 0.34202 -0.939693 0   
     length 7.6767   
     axis 0 0 20   XYZ
    dof rx
    limits (-10.0 170.0)
  end
  begin
     id 4 
     name lfoot
     direction 0.0803374 -0.220725 0.972022   
     length 2.22945   
     axis -90 7.62852e-016 20   XYZ
    dof rx rz
    limits (-45.0 90.0)
           (-70.0 20.0)
  end
  begin
     id 5 
     name ltoes
     direction 1.53579e-011 -4.21994e-011 1   
     length 1.11848   
     axis -90 7.62852e-016 20   XYZ
    dof rx
    limits (-90.0 20.0)
  end
  begin
     id 6 
     name rhipjoint
     direction -0.664428 -0.664335 0.342336   
     length 2.55466  
     axis 0 0 0  XYZ 
  end
  begin
     id 7 
     name rfemur
     direction -0.34202 -0.939693 0   
     length 6.83172   
     axis 0 0 -20   XYZ
    dof rx ry rz
    limits (-160.0 20.0)
           (-70.0 70.0)
           (-70.0 60.0)
  end
  begin
     id 8 
     name rtibia
     direction -0.34202 -0.939693 0   
     length 7.62692   
     axis 0 0 -20   XYZ
    dof rx
    limits (-10.0 170.0)
 end
 begin
     id 9 
     name rfoot
     direction -0.0949276 -0.260811 0.960711   
     length 2.19684  
     axis -90 -7.62852e-016 -20   XYZ
    dof rx rz
    limits (-45.0 90.0)
           (-20.0 70.0)
  end
  begin
     id 10 
     name rtoes
     direction -1.53543e-011 -4.2183e-011 1   
     length 1.09848   
     axis -90 -7.62852e-016 -20   XYZ
    dof rx
    limits (-90.0 20.0)
  end
  begin
     id 11 
     name lowerback
     direction 0.0118782 0.999815 -0.0151555   
     length 2.15772   
     axis 0 0 0   XYZ
    dof rx ry rz
    limits (-20.0 45.0)
           (-30.0 30.0)
           (-30.0 30.0)
  end
  begin
     id 12 
     name upperback
     direction 0.00130825 0.999065 0.0432113   
     length 2.14863   
     axis 0 0 0   XYZ
    dof rx ry rz
    limits (-20.0 45.0)
           (-30.0 30.0)
           (-30.0 30.0)
  end
  begin
     id 13 
     name thorax
     direction -0.00347005 0.998773 0.0494011   
     length 2.14936   
     axis 0 0 0   XYZ
    dof rx ry rz
    limits (-20.0 45.0)
           (-30.0 30.0)
           (-30.0 30.0)
  end
  begin
     id 14 
     name lowerneck
     direction -0.0262159 0.99424 0.103921   
     length 1.69373   
     axis 0 0 0   XYZ
    dof rx ry rz
    limits (-20.0 45.0)
           (-30.0 30.0)
           (-30.0 30.0)
  end
  begin
     id 15 
     name upperneck
     direction 0.0353511 0.977394 -0.20845   
     length 1.70857   
     axis 0 0 0   XYZ
    dof rx ry rz
    limits (-20.0 45.0)
           (-30.0 30.0)
           (-30.0 30.0)
  end
  begin
     id 16
     name head
     direction 0.0139214 0.996594 -0.0812836  
     length 1.72777  
     axis 0 0 0   XYZ
    dof rx ry rz
    limits (-20.0 45.0)
           (-30.0 30.0)
           (-30.0 30.0)
  end
  begin
     id 17 
     name lclavicle
     direction 0.841247 0.537205 -0.0609508  
     length 3.55371  
     axis 0 0 0   XYZ
    dof ry rz
    limits (-20.0 10.0)
           (0.0 20.0)
  end
  begin
     id 18 
     name lhumerus
     direction 1 -4.48964e-011 1.60116e-018   
     length 4.91377   
     axis -180 -30 -90   XYZ
    dof rx ry rz
    limits (-60.0 90.0)
           (-90.0 90.0)
           (-90.0 90.0)
  end
  begin
     id 19
     name lradius
     direction 1 -4.48989e-011 -8.93847e-027   
     length 3.00291   
     axis -180 -30 -90   XYZ
    dof rx
    limits (-10.0 170.0)
  end
  begin
     id 20
     name lwrist
     direction 1 -4.48932e-011 -7.31504e-027   
     length 1.50145   
     axis 5.74121e-015 90 90   XYZ
    dof ry
    limits (-180.0 0.0)
 end
  begin
     id 21 
     name lhand
     direction 1 -4.48971e-011 -1.46301e-026   
     length 0.450922   
     axis 9.33524e-015 90 90   XYZ
    dof rx rz
    limits (-90.0 90.0)
           (-45.0 45.0)
  end
  begin
     id 22 
     name lfingers
     direction 1 -4.49039e-011 -2.92602e-026   
     length 0.363545   
     axis 1.86705e-014 90 90   XYZ
    dof rx
    limits (0.0 90.0)
  end
  begin
     id 23
     name lthumb
     direction 0.707107 -6.34941e-011 0.707107   
     length 0.52198   
     axis -90 45 2.85299e-015   XYZ
    dof rx rz
    limits (-45.0 45.0)
           (-45.0 45.0)
  end
  begin
     id 24 
     name rclavicle
     direction -0.825079 0.56158 -0.0622297   
     length 3.39909  
     axis 0 0 0   XYZ 
    dof ry rz
    limits (-10.0 20.0)
           (-20.0 0.0)
  end
  begin
     id 25 
     name rhumerus
     direction -1 -4.48965e-011 1.61691e-027  
     length 4.86725   
     axis -180 30 90   XYZ
    dof rx ry rz
    limits (-90.0 60.0)
           (-90.0 90.0)
           (-90.0 90.0)
  end
  begin
     id 26 
     name rradius
     direction -1 -4.48964e-011 -2.25776e-027   
     length 3.17144   
     axis -180 30 90   XYZ
    dof rx
    limits (-10.0 170.0)
  end
  begin
     id 27 
     name rwrist
     direction -1 -4.48961e-011 -7.31504e-027   
     length 1.58572   
     axis 5.74121e-015 -90 -90   XYZ
    dof ry
    limits (-180.0 0.0)
  end
  begin
     id 28
     name rhand
     direction -1 -4.49013e-011 -1.46301e-026   
     length 0.419368   
     axis 9.33524e-015 -90 -90   XYZ
    dof rx rz
    limits (-90.0 90.0)
           (-45.0 45.0)
  end
  begin
     id 29
     name rfingers
     direction -1 -4.489e-011 -2.92602e-026   
     length 0.338105   
     axis 1.86705e-014 -90 -90   XYZ
    dof rx
    limits (0.0 90.0)
  end
  begin
     id 30
     name rthumb
     direction -0.707107 -6.35022e-011 0.707107   
     length 0.485453   
     axis -90 -45 -2.85299e-015   XYZ
    dof rx rz
    limits (-45.0 45.0)
           (-45.0 45.0)
  end
:hierarchy
  begin
    root lhipjoint rhipjoint lowerback
    lhipjoint lfemur
    lfemur ltibia
    ltibia lfoot
    lfoot ltoes
    rhipjoint rfemur
    rfemur rtibia
    rtibia rfoot
    rfoot rtoes
    lowerback upperback
    upperback thorax
    thorax lowerneck lclavicle rclavicle
    lowerneck upperneck
    upperneck head
    lclavicle lhumerus
    lhumerus lradius
    lradius lwrist
    lwrist lhand lthumb
    lhand lfingers
    rclavicle rhumerus
    rhumerus rradius
    rradius rwrist
    rwrist rhand rthumb
    rhand rfingers
  end

#!OML:ASF H:\Swim 2\Project 1\Capture day 1\Session 1\male.ASF
:FULLY-SPECIFIED
:DEGREES
323
root 0.991304 15.0482 9.64319 106.89 -51.6247 -8.21279
lowerback -14.5954 5.79916 5.11077
upperback -12.5879 6.92407 -10.6466
thorax -3.54098 2.74671 -13.773
lowerneck -12.362 -6.39359 -7.13444
upperneck -22.0809 -7.5854 8.01513
head -4.10115 -3.89404 3.68769
rclavicle -5.725e-014 -1.33385e-013
rhumerus -10.8681 26.725 -40.0149
rradius 95.5786
rwrist -13.6595
rhand -17.3876 2.82022
rfingers 7.12502
rthumb 8.8613 -26.9737
lclavicle -5.725e-014 -1.33385e-013
lhumerus 51.4143 -33.3732 -6.52563
lradius 104.455
lwrist 80.0339
lhand -43.9012 -29.6712
lfingers 7.12502
lthumb -16.7261 -0.371792
rfemur -100.085 -5.90401 16.8092
rtibia 129.842
rfoot 2.4126 23.8854
rtoes -7.24703
lfemur -96.0287 36.2151 -56.8967
ltibia 134.883
lfoot -6.50287 11.4768
ltoes 9.24012
324
root 0.992212 15.0522 9.65196 106.761 -51.7687 -8.00407
lowerback -15.0574 5.83306 5.02169
upperback -12.6442 6.96161 -10.6657
thorax -3.35529 2.77543 -13.6969
lowerneck -12.4883 -6.44319 -7.1949
upperneck -21.8643 -7.6183 8.16063
head -4.00182 -3.90928 3.72923
rclavicle 4.13472e-014 2.54444e-014
rhumerus -12.0549 27.6963 -41.7441
rradius 97.1012
rwrist -14.1242
rhand -17.4808 3.33933
rfingers 7.12502
rthumb 8.77135 -26.4584
lclavicle 4.13472e-014 2.54444e-014
lhumerus 51.84 -34.4721 -6.20649
lradius 105.878
lwrist 80.3525
lhand -43.6251 -29.6126
lfingers 7.12502
lthumb -16.4602 -0.290897
rfemur -100.416 -6.79062 16.6369
rtibia 131.278
rfoot 2.54122 24.4207
rtoes -7.64071
lfemur -95.767 37.7979 -56.7175
ltibia 135.282
lfoot -6.92461 10.6008
ltoes 7.55846
325
root 0.992708 15.0567 9.66213 106.628 -51.922 -7.76641
lowerback -15.5601 5.86132 4.90302
upperback -12.7043 6.99389 -10.6727
thorax -3.15907 2.80322 -13.5863
lowerneck -12.6275 -6.50865 -7.28836
upperneck -21.5793 -7.66407 8.34628
head -3.87487 -3.92924 3.78503
rclavicle 3.18055e-014 4.59193e-014
rhumerus -13.1865 28.6264 -43.4927
rradius 98.6004
rwrist -14.7253
rhand -17.5803 3.93495
rfingers 7.12502
rthumb 8.67534 -25.8668
lclavicle 3.18055e-014 4.59193e-014
lhumerus 52.2874 -35.5296 -5.76314
lradius 107.172
lwrist 80.5022
lhand -43.3684 -29.4257
lfingers 7.12502
lthumb -16.2131 -0.0836629
rfemur -100.74 -7.79099 16.452
rtibia 132.746
rfoot 2.65914 24.9714
rtoes -8.21436
lfemur -95.4234 39.4311 -56.4718
ltibia 135.655
lfoot -7.37551 9.67992
ltoes 5.90682
326
root 0.992717 15.0623 9.67356 106.496 -52.0927 -7.50217
lowerback -16.0926 5.88167 4.74724
upperback -12.7691 7.01933 -10.6679
thorax -2.9605 2.82912 -13.4391
lowerneck -12.7957 -6.58755 -7.40658
upperneck -21.2145 -7.72267 8.5502
head -3.71608 -3.95309 3.84594
rclavicle -3.33958e-014 -3.69739e-014
rhumerus -14.2693 29.5102 -45.2661
rradius 100.083
rwrist -15.4854
rhand -17.6442 4.74056
rfingers 7.12502
rthumb 8.61368 -25.0637
lclavicle -3.33958e-014 -3.69739e-014
lhumerus 52.7367 -36.542 -5.19097
lradius 108.362
lwrist 80.5437
lhand -43.1443 -29.1736
lfingers 7.12502
lthumb -15.9973 0.185849
rfemur -101.062 -8.91754 16.2431
rtibia 134.245
rfoot 2.7702 25.5451
rtoes -8.95868
lfemur -94.9925 41.1067 -56.16
ltibia 136.01
lfoot -7.83605 8.74113
ltoes 4.36226
327
root 0.992316 15.0688 9.68597 106.359 -52.2782 -7.20982
lowerback -16.6419 5.89532 4.56232
upperback -12.84 7.03963 -10.6527
thorax -2.76693 2.85302 -13.2627
lowerneck -12.9885 -6.67898 -7.54352
upperneck -20.7775 -7.79648 8.75413
head -3.52975 -3.98165 3.90562
rclavicle 3.18055e-014 -9.81996e-014
rhumerus -15.3007 30.3444 -47.0515
rradius 101.554
rwrist -16.4109
rhand -17.5929 5.66551
rfingers 7.12502
rthumb 8.66321 -24.1367
lclavicle 3.18055e-014 -9.81996e-014
lhumerus 53.1801 -37.5004 -4.48935
lradius 109.476
lwrist 80.5636
lhand -42.9366 -28.8612
lfingers 7.12502
lthumb -15.7973 0.514236
rfemur -101.379 -10.1782 16.0075
rtibia 135.766
rfoot 2.86884 26.1553
rtoes -9.82758
lfemur -94.4685 42.8106 -55.7755
ltibia 136.35
lfoot -8.26687 7.8174
ltoes 2.89993
